<svg width="500" height="210" viewBox="0 0 500 210" fill="none" xmlns="http://www.w3.org/2000/svg">
    <path d="M0 58.7893C0 42.2207 13.4315 28.7893 30 28.7893H85.4387C93.3886 28.7893 99.8333 22.3446 99.8333 14.3946V14.3946C99.8333 6.4447 106.278 0 114.228 0H244.167H385.855C393.805 0 400.25 6.4447 400.25 14.3946V14.3946C400.25 22.3446 406.695 28.7893 414.645 28.7893H470C486.569 28.7893 500 42.2207 500 58.7893V180C500 196.569 486.569 210 470 210H30C13.4315 210 0 196.569 0 180V58.7893Z" fill="black"/>
</svg>
